<?xml version="1.0" encoding="utf-8"?>
<!-- Generator: Adobe Illustrator 16.0.0, SVG Export Plug-In . SVG Version: 6.00 Build 0)  -->
<!DOCTYPE svg PUBLIC "-//W3C//DTD SVG 1.1//EN" "http://www.w3.org/Graphics/SVG/1.1/DTD/svg11.dtd">
<svg version="1.1" id="Layer_1" xmlns="http://www.w3.org/2000/svg" xmlns:xlink="http://www.w3.org/1999/xlink" x="0px" y="0px"
	 width="612px" height="792px" viewBox="0 0 612 792" enable-background="new 0 0 612 792" xml:space="preserve">
<path fill="#605E5E" d="M306,406.552c-14.773,0-28.489-2.11-41.152-5.275l20.048,279.62C285.952,692.503,294.394,702,306,702
	s20.048-9.497,21.104-21.104l20.048-279.62C334.49,405.497,320.772,406.552,306,406.552"/>
<path fill="#105D89" d="M464.276,248.276C464.276,160.697,393.579,90,306,90c-87.58,0-158.276,70.697-158.276,158.276
	c0,87.579,70.697,158.275,158.276,158.275S464.276,335.855,464.276,248.276"/>
<g>
	<path fill="#FCFCFC" d="M306,248.276c-23.214,0-42.207-18.994-42.207-42.207c0-23.213,18.994-42.207,42.207-42.207
		s42.206,18.993,42.206,42.207C348.206,229.283,329.214,248.276,306,248.276z M306,184.965c-11.606,0-21.103,9.497-21.103,21.103
		s9.497,21.104,21.103,21.104s21.104-9.497,21.104-21.104S317.606,184.965,306,184.965z"/>
	<path fill="#FCFCFC" d="M358.759,332.689c-6.332,0-10.553-4.221-10.553-10.552v-31.655c0-23.214-18.993-42.207-42.206-42.207
		s-42.207,18.994-42.207,42.207v31.655c0,6.332-4.221,10.552-10.552,10.552s-10.552-4.221-10.552-10.552v-31.655
		c0-34.821,28.489-63.311,63.311-63.311c34.82,0,63.311,28.489,63.311,63.311v31.655
		C369.311,328.468,365.089,332.689,358.759,332.689z"/>
</g>
</svg>
