<?xml version="1.0" encoding="utf-8"?>
<!-- Generator: Adobe Illustrator 16.0.0, SVG Export Plug-In . SVG Version: 6.00 Build 0)  -->
<!DOCTYPE svg PUBLIC "-//W3C//DTD SVG 1.1//EN" "http://www.w3.org/Graphics/SVG/1.1/DTD/svg11.dtd">
<svg version="1.1" id="Layer_1" xmlns="http://www.w3.org/2000/svg" xmlns:xlink="http://www.w3.org/1999/xlink" x="0px" y="0px"
	 width="612px" height="792px" viewBox="0 0 612 792" enable-background="new 0 0 612 792" xml:space="preserve">
<path fill="#605E5E" d="M306,406.552c-14.773,0-28.489-2.11-41.152-5.275l20.048,279.62C285.952,692.503,294.394,702,306,702
	s20.048-9.497,21.104-21.104l20.048-279.62C334.49,404.441,320.772,406.552,306,406.552"/>
<path fill="#DD342E" d="M464.276,248.276C464.276,160.697,393.579,90,306,90c-87.58,0-158.276,70.697-158.276,158.276
	c0,87.579,70.697,158.275,158.276,158.275S464.276,335.855,464.276,248.276"/>
<path fill="#F86363" d="M189.932,258.827c-6.332,0-10.552-4.221-10.552-10.552c0-69.641,56.979-126.621,126.621-126.621
	c6.332,0,10.552,4.221,10.552,10.552s-4.22,10.552-10.552,10.552c-58.035,0-105.518,47.482-105.518,105.518
	C200.482,254.606,196.262,258.827,189.932,258.827"/>
</svg>
