<?xml version="1.0" encoding="utf-8"?>
<!-- Generator: Adobe Illustrator 16.0.0, SVG Export Plug-In . SVG Version: 6.00 Build 0)  -->
<!DOCTYPE svg PUBLIC "-//W3C//DTD SVG 1.1//EN" "http://www.w3.org/Graphics/SVG/1.1/DTD/svg11.dtd">
<svg version="1.1" id="Layer_1" xmlns="http://www.w3.org/2000/svg" xmlns:xlink="http://www.w3.org/1999/xlink" x="0px" y="0px"
	 width="612px" height="792px" viewBox="0 0 612 792" enable-background="new 0 0 612 792" xml:space="preserve">
<path fill="#605E5E" d="M306,406.552c-14.773,0-28.489-2.11-41.152-5.275l20.048,279.62C285.952,692.503,294.394,702,306,702
	s20.048-9.497,21.104-21.104l20.048-279.62C334.49,405.497,320.772,406.552,306,406.552"/>
<path fill="#2A9342" d="M464.276,248.276C464.276,160.697,393.579,90,306,90c-87.58,0-158.276,70.697-158.276,158.276
	c0,87.579,70.697,158.275,158.276,158.275S464.276,335.855,464.276,248.276"/>
<path fill="#FFFFFF" d="M295.448,322.138c-3.165,0-5.276-1.056-7.386-3.166l-52.759-52.758c-4.221-4.221-4.221-10.552,0-14.773
	s10.552-4.221,14.773,0l43.262,43.262l66.477-104.462c3.165-5.276,9.496-6.332,14.772-3.165s6.332,9.497,3.165,14.773
	L303.89,317.917c-2.111,3.165-4.221,4.221-7.386,5.276C296.503,322.138,295.448,322.138,295.448,322.138z"/>
</svg>
