<?xml version="1.0" ?><svg style="enable-background:new 0 0 256 256;" version="1.1" viewBox="0 0 256 256" xml:space="preserve" xmlns="http://www.w3.org/2000/svg" xmlns:xlink="http://www.w3.org/1999/xlink"><style type="text/css">
	.st0{fill:#00A388;}
	.st1{fill:#EA685E;stroke:#00886F;stroke-width:15;stroke-miterlimit:10;}
	.st2{fill:#E8E8E8;}
	.st3{fill:#FFFFFF;stroke:#00886F;stroke-width:15;stroke-miterlimit:10;}
	.st4{fill:#00886F;}
	.st5{fill:#FFFFFF;}
	.st6{fill:#CCCCCC;}
	.st7{fill:none;stroke:#00A388;stroke-width:4;stroke-miterlimit:10;}
	.st8{fill:#EA685E;}
	.st9{fill:#FFAB80;}
	.st10{fill:#2C3E50;}
	.st11{fill:#4B687F;}
	.st12{fill:none;stroke:#3E5063;stroke-width:4;stroke-miterlimit:10;}
	.st13{fill:#FFD766;}
	.st14{fill:#FFE6D3;}
	.st15{fill:#F09A79;}
	.st16{fill:#C91E01;}
	.st17{fill:#EA3B28;}
	.st18{fill:#0F627F;}
	.st19{fill:#005670;}
	.st20{filter:url(#Adobe_OpacityMaskFilter);}
	.st21{mask:url(#SVGID_2_);}
	.st22{fill:#8C623B;}
	.st23{fill:#E6E6E6;stroke:#005670;stroke-width:16;stroke-miterlimit:10;}
	.st24{opacity:0.6;}
	.st25{fill:#E6E6E6;}
	.st26{fill:#FFEC82;}
	.st27{fill:#FFCF3A;}
	.st28{filter:url(#Adobe_OpacityMaskFilter_1_);}
	.st29{mask:url(#SVGID_1_);}
	.st30{fill:#603813;}
	.st31{fill:#F2F2F2;}
	.st32{fill:#666666;}
</style><g id="Layer_2"><circle class="st2" cx="128" cy="128" r="120"/></g><g id="Layer_1"><g><g><g><g><path class="st18" d="M117.193504,153.770737c-21.405243,0-38.819099-17.413849-38.819099-38.819099       s17.413857-38.819092,38.819099-38.819092s38.819099,17.413857,38.819099,38.819092       S138.59874,153.770737,117.193504,153.770737z M117.193504,90.058189c-13.725739,0-24.893448,11.167717-24.893448,24.893448       c0,13.725746,11.167709,24.893456,24.893448,24.893456s24.893456-11.167709,24.893456-24.893456       C142.08696,101.225906,130.919235,90.058189,117.193504,90.058189z"/></g></g><g><g><path class="st18" d="M117.193504,181.645142c-36.775124,0-66.693504-29.918381-66.693504-66.693504       s29.918381-66.693497,66.693504-66.693497s66.693504,29.918377,66.693504,66.693497       S153.968628,181.645142,117.193504,181.645142z M117.193504,62.183781c-29.096985,0-52.76786,23.670879-52.76786,52.767857       s23.670876,52.76786,52.76786,52.76786s52.76786-23.670868,52.76786-52.76786S146.290482,62.183781,117.193504,62.183781z"/></g></g></g><g><g><g><path class="st16" d="M184.232147,207.741867c-2.432281,0-4.720566-0.947128-6.4431-2.667282l-16.95636-16.94133       l-8.02243,8.0327c-1.60463,1.607025-3.736252,2.49321-6.002365,2.49321c-3.344589,0-6.390884-1.965439-7.760529-5.006989       l-0.0728-0.160614l-22.07412-63.150772c-1.095871-2.59845-0.848213-5.533966,0.678093-7.893456       c1.588028-2.455231,4.252937-3.92141,7.128319-3.92141c1.137016,0,2.254257,0.229462,3.323219,0.68364l55.856934,19.542297       l8.906937-0.976593c2.100143,2.925919,2.946854,6.981979,3.450073,9.729187       c0.501648,2.742447-0.374252,5.558487-2.343658,7.531845l-8.031921,8.036667L201.28978,174.0849       c1.721741,1.728073,4.209427,9.94101,4.21022,12.370117c0.001587,2.437042-0.947128,4.725311-2.672028,6.443893       l-12.151138,12.170135C188.955872,206.793167,186.666809,207.741867,184.232147,207.741867z"/></g></g></g><g><g><g><path class="st17" d="M181.852585,200.849319c-2.432281,0-4.720566-0.947113-6.4431-2.667282l-16.95636-16.941315       l-8.02243,8.0327c-1.604645,1.607025-3.736252,2.49321-6.00238,2.49321c-3.344589,0-6.390869-1.965439-7.760513-5.006989       l-0.0728-0.160629l-22.074127-63.150764c-1.095871-2.59845-0.848213-5.533966,0.678101-7.893456       c1.588028-2.455231,4.252937-3.921402,7.128319-3.921402c1.137016,0,2.25425,0.229462,3.323219,0.683632l63.17926,21.995796       l0.164581,0.074371c2.546219,1.150482,4.366867,3.477524,4.870102,6.224716       c0.501648,2.742462-0.374252,5.558502-2.343658,7.53186l-8.031921,8.036667l16.963486,16.939743       c1.721741,1.728073,2.667282,4.013184,2.668076,6.442307c0.001572,2.437027-0.947128,4.725311-2.672043,6.443893       l-12.151123,12.17012C186.576309,199.90062,184.287247,200.849319,181.852585,200.849319z"/></g></g></g></g></g></svg>